<svg xmlns="http://www.w3.org/2000/svg" viewBox="0 0 100 100">
  <defs>
    <linearGradient id="grad1" x1="0%" y1="0%" x2="100%" y2="100%">
      <stop offset="0%" style="stop-color:#667eea;stop-opacity:1" />
      <stop offset="100%" style="stop-color:#764ba2;stop-opacity:1" />
    </linearGradient>
  </defs>

  <!-- Background circle -->
  <circle cx="50" cy="50" r="48" fill="url(#grad1)"/>

  <!-- Puzzle pieces representing design patterns -->
  <!-- Top-left piece -->
  <path d="M 25 25 L 45 25 C 45 20 50 20 50 25 L 50 45 C 55 45 55 50 50 50 L 25 50 L 25 25 Z"
        fill="#ffffff" opacity="0.9"/>

  <!-- Top-right piece -->
  <path d="M 50 25 C 50 20 55 20 55 25 L 75 25 L 75 50 L 50 50 C 55 50 55 45 50 45 L 50 25 Z"
        fill="#ffffff" opacity="0.85"/>

  <!-- Bottom-left piece -->
  <path d="M 25 50 L 50 50 C 55 50 55 55 50 55 L 50 75 L 25 75 L 25 50 Z"
        fill="#ffffff" opacity="0.85"/>

  <!-- Bottom-right piece -->
  <path d="M 50 50 L 75 50 L 75 75 L 50 75 L 50 55 C 55 55 55 50 50 50 Z"
        fill="#ffffff" opacity="0.8"/>

  <!-- Center connecting dots -->
  <circle cx="50" cy="50" r="3" fill="#fbbf24"/>
</svg>
